<svg width="48" height="48" viewBox="0 0 48 48" fill="none" xmlns="http://www.w3.org/2000/svg">
<circle cx="24" cy="24" r="23.25" stroke="#5FC6C1" stroke-width="1.5"/>
<g clip-path="url(#clip0_4725_1132)">
<path d="M28.5 12H19.5C15.3585 12 12 15.3585 12 19.5V28.5C12 32.6415 15.3585 36 19.5 36H28.5C32.6415 36 36 32.6415 36 28.5V19.5C36 15.3585 32.6415 12 28.5 12ZM33.75 28.5C33.75 31.395 31.395 33.75 28.5 33.75H19.5C16.605 33.75 14.25 31.395 14.25 28.5V19.5C14.25 16.605 16.605 14.25 19.5 14.25H28.5C31.395 14.25 33.75 16.605 33.75 19.5V28.5Z" fill="#269E96"/>
<path d="M23.9998 18.0001C20.6863 18.0001 17.9998 20.6866 17.9998 24.0001C17.9998 27.3136 20.6863 30.0001 23.9998 30.0001C27.3133 30.0001 29.9998 27.3136 29.9998 24.0001C29.9998 20.6866 27.3133 18.0001 23.9998 18.0001ZM23.9998 27.7501C21.9328 27.7501 20.2498 26.0671 20.2498 24.0001C20.2498 21.9316 21.9328 20.2501 23.9998 20.2501C26.0668 20.2501 27.7498 21.9316 27.7498 24.0001C27.7498 26.0671 26.0668 27.7501 23.9998 27.7501Z" fill="#269E96"/>
<path d="M30.6465 18.3254C31.0745 18.2167 31.3333 17.7817 31.2246 17.3537C31.1159 16.9258 30.6809 16.6669 30.2529 16.7756C29.825 16.8843 29.5661 17.3193 29.6748 17.7473C29.7835 18.1753 30.2185 18.4341 30.6465 18.3254Z" fill="#269E96"/>
</g>
<defs>
<clipPath id="clip0_4725_1132">
<rect width="24" height="24" fill="white" transform="translate(12 12)"/>
</clipPath>
</defs>
</svg>
