<svg width="48" height="48" viewBox="0 0 48 48" fill="none" xmlns="http://www.w3.org/2000/svg">
<circle cx="24" cy="24" r="23.25" stroke="#5FC6C1" stroke-width="1.5"/>
<path d="M19.8193 33.0106C28.3103 33.0106 32.9536 25.9761 32.9536 19.8762C32.9536 19.6765 32.9495 19.4775 32.9406 19.2796C33.8418 18.628 34.6252 17.8148 35.2433 16.8891C34.4162 17.2569 33.5259 17.5042 32.5923 17.6161C33.5453 17.0444 34.2771 16.1403 34.6221 15.0627C33.7302 15.5915 32.7424 15.9756 31.6909 16.1831C30.8485 15.2859 29.6491 14.7247 28.3211 14.7247C25.772 14.7247 23.7046 16.792 23.7046 19.3403C23.7046 19.7027 23.7452 20.055 23.8243 20.3929C19.9877 20.1999 16.5854 18.3631 14.3089 15.5699C13.9126 16.2519 13.6839 17.0445 13.6839 17.8902C13.6839 19.4915 14.4989 20.9056 15.7381 21.7326C14.9808 21.7093 14.2694 21.5014 13.6475 21.1554C13.6468 21.1748 13.6468 21.1936 13.6468 21.2142C13.6468 23.4499 15.2379 25.3166 17.3505 25.7396C16.9625 25.8451 16.5542 25.9019 16.1332 25.9019C15.8362 25.9019 15.5467 25.8727 15.2655 25.8187C15.8531 27.6528 17.5574 28.9875 19.5779 29.025C17.9979 30.2634 16.0075 31.001 13.8444 31.001C13.4723 31.001 13.1045 30.9797 12.7432 30.937C14.7862 32.2465 17.2122 33.0108 19.8194 33.0108" fill="#269E96"/>
</svg>
